<svg xmlns="http://www.w3.org/2000/svg" enable-background="new 0 0 2000 2000" viewBox="0 0 2000 2000"><path fill="#35ffc9" d="M562.8,1639.8c-22.8-26.5-58.2-37.2-91-29.7c-0.3-1.9-0.5-3.8-0.7-5.7c11.2,1,23-0.6,33.7-3.2
			c6.6-1.6,13.2-3.8,19.4-6.6c4.6-2.1,9.6-5,10.7-10.4c3.1-15.7-19.3-12.8-27.9-11.3c-12.5,2.2-24.9,6.4-35.8,12.9
			c0.3-2.7,0.7-5.5,1.1-8.3c1.1-6.3-7.9-7.9-9.6-1.9c-1.9,6.5-2.8,13.5-2.8,20.5c-0.6,1.4-0.6,3.2,0.2,4.6c0.3,4.2,0.8,8.3,1.7,12.3
			c-5.1,1.8-10.1,4.1-15,6.8c-35.5,20.2-55.2,67.7-35.6,105.5c10.2,19.8,30.3,33.7,51.9,38.3c13,2.7,26.4,1.9,39.1-1.6
			c13.5-1.6,26.7-6.7,38.2-13.7c17.3-10.5,32.2-26.4,38.2-46C585.2,1680.4,577.4,1656.8,562.8,1639.8z M564.5,1691.6
			c-0.1,2-1,4-1.6,5.9c-0.7,2.1-1.5,4.2-2.2,6.3c-0.8,2.3-3.9,3.1-6,2.4c-2.2-0.7-3.9-3.2-3.2-5.6c0.5-2,1-4,1.6-5.9
			c0.6-2.1,1.2-4.5,2.2-6.3c1.3-2.2,3.5-3.2,5.9-2.4C563.8,1686.9,564.7,1689.2,564.5,1691.6z M554.4,1669.5
			c-10.5-20.7-29-34.7-52.7-35.4c-6.3-0.2-7.1-9.7-0.6-10c25.9-1,53.5,16.2,62,41C564.9,1670.3,556.9,1674.6,554.4,1669.5z"/><path fill="#35ffc9" d="M857.2,1726.7c3.5-4.6,7-9.1,10.4-13.7c8.8,13.8,19.5,27,32.1,37.6c-6.5,7.6-13,15.2-19.5,22.8
			c4,6.8,8,13.6,12,20.4c13.5,23.4,27,46.7,40.5,70.1c1.6,2.8,5.2,3.5,8,2c29.3-15.9,58.6-31.8,87.9-47.8
			c11.9-5.7,24.3-10.7,35.6-17.4c6.9-4.1,5.9-9.8,4.7-12.4c-17.6-37.3-37.6-73.6-56.4-110.3c-6.2-12.2-12.5-24.3-18.7-36.5
			c-4.2,4.9-8.5,9.9-12.7,14.8c-8-14-18.7-26.9-30-38.1c6.2-7.9,12.4-15.7,18.7-23.6c-4.6-8.9-9.2-17.9-13.8-26.8
			c-10.7-20.8-20.8-42.2-32.5-62.5c-1.9-3.2-5.1-3.4-7.4-1.8c-1,0-2,0.3-3.1,1c-20,13.4-40.5,25.9-61.6,37.4
			c-21.2,11.5-43.1,21.3-64.9,31.5c-2.3,1.1-3.1,3.3-2.7,5.5c-1.2,1.7-1.7,3.9-0.6,6.2c21.7,49,45.7,97,71.8,143.7
			c0.1,0.2,0.2,0.4,0.3,0.6C855.8,1728.5,856.5,1727.6,857.2,1726.7z M960.9,1834.1c3.2,6.3-5.6,11.6-9.5,5.6
			c-7.3-11.3-13.9-23.3-20.2-35.2c-3.3-6.3,5.8-11.8,9.6-5.7C948,1810.3,954.9,1822.1,960.9,1834.1z M872,1697.1
			c-3.6-11-5-22.7-3.7-34.4c1.4-12.8,6-26.2,15.6-35.1c9.3-8.6,21.6-11.7,34-10.1c9.8,1.3,18.2,5.1,25.3,10.5c0-0.1,0.1-0.1,0.1-0.2
			c11.6,11.6,20.6,24.6,29.2,38.3c0,0.1-0.1,0.1-0.1,0.2c10.9,23.5,15.9,51.3-2.2,72.2c-16.9,19.5-42.7,15.4-62.6,3.4
			c-12.3-11.8-23.4-24.2-32.3-39C874.2,1701,873.1,1699,872,1697.1z M920.1,1765.2c2.4,3.3,4.7,7,6.5,10.7c3.2,6.5-5.5,11.6-9.6,5.7
			c-2.4-3.4-4.5-7.1-6.3-10.8C907.8,1764.4,916,1759.6,920.1,1765.2z"/><path fill="#35ffc9" d="M1434.8,1166.8c-20.5-40.7-54.6-74.8-94.2-97.1c-22.3-12.5-46.7-21.8-72-26c-3.4-0.6-5.9,1.4-7,3.9
			c-0.3-0.1-0.6-0.2-1-0.2c-3.7-0.9-6.3,1.3-7.2,4c-1.5-0.3,9.7,5.3,8.2,5.1c-7.5-1.1-23.7,3.7-15.9,5.9
			c20.1,5.7,39.6,11.7,58.2,21.5c18.3,9.7,35.5,21.5,50.6,35.7c31.6,29.6,54.3,67.7,65.5,109.5c3.2,11.9,5.5,24,6.8,36.2
			c0.6,6.2,1,12.3,1.1,18.5c0.1,6.4-0.5,13,0.2,19.4c0.6,4.7,5.4,7.5,9.2,6.5c1.2,6.8,9.9,7.3,13.5,2.3c3.3,0.3,6.7-1.2,7.3-4.9
			C1464.9,1259.2,1456.5,1209.9,1434.8,1166.8z"/><path fill="#35ffc9" d="M1016,708.8c-1.9-4.1-5-7.2-8.7-9.2c0-0.2,0-0.3,0-0.5c0-7.6-11.3-7.7-12-0.4c-1.1,0.9-2,2.1-2.2,3.3
			c-2.8,17.2-6.7,34.1-11.7,50.7c-19.7,49.2-47.2,95-82.3,134.9c-2.9,3.3-2.6,8.4,1.4,10.7c15.4,9,29.1-3.9,38.5-15.1
			c3.3-3.9,6.5-7.9,9.6-12c36.5-36.4,53.6-88.9,67.4-137.8C1018.4,725.3,1019.7,716.5,1016,708.8z"/><path fill="#35ffc9" d="M430.9,199.3c-30.9-12.5-65.8-10.8-97.8-3.7c-31.2,6.9-61.5,20.7-84.5,43.3c-23.3,22.9-36.8,54.1-36.2,86.9
			c0.5,27.5,11.1,54.4,29.5,74.8c30.5,45.5,82.6,75.1,138.6,71.7c63.4-3.9,117.7-51.5,125.8-115.2
			C513.8,298,490.3,223.3,430.9,199.3z M436.7,292.3c-0.8,6.2-7.2,10.6-11.6,14.5c-11,9.9-22.4,19.5-34,28.8
			c10.5,14.2,20.5,28.8,29.3,44c3.1,5.4,5.5,11.5,4.1,17.8c-1.1,5-4.6,9.6-9.5,11.2c-13.1,4.4-21.8-10.8-28.4-19.3
			c-8.1-10.5-16.2-21-24.3-31.5c-13.7,10.1-27.8,19.7-42.3,28.1c-5.4,3.1-11.5,5.5-17.8,4.1c-5-1.1-9.6-4.6-11.2-9.5
			c-4.4-13.1,10.8-21.8,19.3-28.4c10-7.7,19.9-15.4,29.9-23.1c-2.3-2.9-4.5-5.8-6.8-8.8c-4.6-5.9-9.2-11.8-13.8-17.7
			c-2.2-2.8-4.5-5.6-6.6-8.5c-0.2-0.2-0.4-0.5-0.5-0.8c-1.2-1.8-2.2-3.7-3-5.7c0-0.1,0-0.1-0.1-0.2c-4.1-7.1-3.3-16.4,3.8-21.8
			c4.5-3.4,9.3-3.9,13.6-2.5c6.2,0.8,10.6,7.2,14.5,11.6c9.5,10.5,18.7,21.4,27.5,32.4c3.5-2.7,6.9-5.4,10.4-8
			c5.9-4.6,11.8-9.2,17.7-13.8c2.8-2.2,5.6-4.5,8.5-6.6c0.2-0.2,0.5-0.4,0.8-0.5c1.8-1.2,3.7-2.2,5.7-3c0.1,0,0.1,0,0.2-0.1
			c7.1-4.1,16.4-3.3,21.8,3.8C437.6,283.2,438.1,287.9,436.7,292.3z"/><path fill="#35ffc9" d="M1810.8,1147.7c-25.5,0-46.2-20.7-46.2-46.2s20.7-46.2,46.2-46.2c25.5,0,46.2,20.7,46.2,46.2
					S1836.3,1147.7,1810.8,1147.7z M1810.8,1075.8c-14.1,0-25.6,11.5-25.6,25.6c0,14.1,11.5,25.6,25.6,25.6
					c14.1,0,25.6-11.5,25.6-25.6C1836.4,1087.3,1824.9,1075.8,1810.8,1075.8z"/><g><path fill="#ffef00" d="M766.7,1692.1c1.2-15.3,2.1-39.8-18.7-41.8c-21-2.1-31.8,20.2-39.3,36c-9,19.3-15.3,40.1-18.4,61.2
			c-1.6,10.7-2.3,21.4-2.4,32.2c0,9.9-0.5,21.4,2.5,31c1.8,5.9,6.4,9.2,11.6,9.8c8.2,3.4,17.3-0.9,23-7.1c6.8-7.6,11.5-18,15.9-27.1
			c4.8-9.8,9-20,12.5-30.4C760.5,1735.3,765,1713.8,766.7,1692.1z"/><path fill="#ffef00" d="M389,1385.5c-8.7-12.7-23.3-32.2-40.8-20.8c-17.6,11.6-12.1,35.7-7.9,52.7c5.1,20.7,13.3,40.8,24.1,59.1
			c5.5,9.3,11.6,18.1,18.4,26.5c6.2,7.7,13.1,17,21.4,22.5c5.1,3.4,10.8,3.1,15.2,0.3c8.6-2.5,13-11.6,13.4-20
			c0.5-10.2-2.4-21.2-4.6-31.1c-2.4-10.7-5.6-21.2-9.4-31.5C411.2,1423,401.3,1403.4,389,1385.5z"/><path fill="#ffef00" d="M669.2,1514.1c-12-9.6-31.7-24-45.1-8c-13.5,16.2-1.1,37.7,7.8,52.7c10.9,18.3,24.6,35.1,40.3,49.5
			c7.9,7.3,16.4,13.9,25.3,20c8.2,5.6,17.5,12.4,27,15.3c5.9,1.8,11.2-0.2,14.6-4.2c7.5-4.9,9-14.8,7-23
			c-2.5-9.9-8.5-19.6-13.5-28.4c-5.5-9.5-11.5-18.6-18.2-27.3C701.4,1543.5,686.2,1527.7,669.2,1514.1z"/><path fill="#ffef00" d="M471.6,1501.4c-14.7,4.4-37.8,12.5-32.1,32.6c5.7,20.3,30.4,22.3,47.9,23.4c21.3,1.4,42.9-0.4,63.7-5.1
			c10.5-2.4,20.8-5.6,30.8-9.5c9.2-3.6,20.1-7.4,27.9-13.6c4.8-3.8,6.2-9.3,4.9-14.4c0.2-8.9-7.1-15.8-15-18.8
			c-9.6-3.6-20.9-4.1-31-5c-10.9-0.9-21.9-1.1-32.8-0.6C514,1491.6,492.4,1495.1,471.6,1501.4z"/><path fill="#ffef00" d="M910.7,908.5c-6.9-7.7-19-8.1-28.5-9.7c-11.6-2-23.2-4-34.8-5.9c-0.8-0.1-1.5-0.2-2.3-0.1
			c-2.4-1-5.3-0.5-6.9,2.6c-4.4,8.7-8.3,17.6-11.3,26.9c-2.7,8.2-5.6,16.9-4,25.6c2.7,15.1,19.2,21.3,33.3,25.1
			c2.1,2.5,5.6,3.4,8.6,2.2c8.4,2.2,17.7,4.5,26.3,2.7c8.8-1.8,14.2-8.6,17.4-16.6c3.6-9,5.7-18.6,7-28.1
			C916.7,924.7,916.9,915.3,910.7,908.5z"/><path fill="#ffef00" d="M1370.3,817.1c-1,0.8-1.9,1.7-2.9,2.5c-1.8-0.4-3.8-0.1-5.3,1.4c-23.8,23.5-50.1,44-81.7,56.1
			c-30.6,11.8-71.2,21.2-98-3.6c-14.6-13.6-20.8-33.2-18.3-52.8c0.8-6.5-10.4-8.2-11.7-1.9c-2.5,0-5.1,1.2-6.2,4.1
			c-7.4,18-4.3,39,5.4,55.5c10.4,17.8,28.9,29.5,48.5,34.7c43.4,11.6,88.4-6.7,122.8-32.8c21-15.9,39.7-34,56.4-54.2
			C1384.5,819.8,1376.6,811.7,1370.3,817.1z"/><path fill="#ffef00" d="M1299.6,557.4c-5.6-11.7-20.7-11.5-31.7-9.4c-10.1,2-24.7,7.7-28.3,18.4c-1.9,5.5,0.1,11.5,4.8,14.8
			c2,1.4,4.3,2.3,6.7,2.9c8.2,6,22.3,2.6,30.8-0.5C1292.5,579.9,1305.9,570.6,1299.6,557.4z"/><path fill="#ffef00" d="M1869.2,488.7c-10.1-44.3-46.4-91.6-95.2-93.3c-25.4-0.9-49.9,9.5-71,22.9c-20.5,13.1-38.6,30.8-49.2,53
			c-10.7,22.5-12.2,48.3-3.2,71.6c7.5,19.5,22.2,36.1,40.7,45.9c33.7,24.6,78.7,32.2,117.9,15.2
			C1853.6,584.7,1880,536.4,1869.2,488.7z M1760.1,562.6c-5.5,6.3-15.5,5.7-20.4-1c-4.6-6.4-2-16.9,6-19.1c0.6-0.2,1.1-0.2,1.6-0.2
			c2.8-1,6-1,8.7,0.4C1763.7,546.2,1765.7,556.3,1760.1,562.6z M1784.6,460.5c-0.8,7.6-2.3,15.1-4.4,22.4
			c-4,13.9-13.7,33.9-17.3,39.7s-13.6,3.9-14.9-2.8c-1.5-7.7-4.2-23.5-4.2-39c0-13.6,3.7-28.3,10.5-40.1c3.4-5.8,8.5-10.8,14.9-11.4
			c6.1-0.5,11.2,3.5,13.9,9.3C1786.1,445.3,1785.4,453.2,1784.6,460.5z"/><path fill="#ffef00" d="M256.5,861.1c-25.5,0-46.2-20.7-46.2-46.2c0-25.5,20.7-46.2,46.2-46.2c25.5,0,46.2,20.7,46.2,46.2
					C302.8,840.4,282,861.1,256.5,861.1z M256.5,789.3c-14.1,0-25.6,11.5-25.6,25.6c0,14.1,11.5,25.6,25.6,25.6
					c14.1,0,25.6-11.5,25.6-25.6C282.1,800.7,270.6,789.3,256.5,789.3z"/><path fill="#ffef00" d="M266.5,1757c-1.8,7.2-1.3,14.6,1,21.4c-11.9,2.8-19.9,2.8-29.5-6.2c-4-3.8-10.7,2.8-6.9,6.9
			c3.3,3.7,5.3,4.9,8.3,6.6c-1.6-0.1-3.1-0.3-4.7-0.5c-6.4-1-7.7,8.7-1.4,9.8c4.3,0.8,8.7,1.2,13.1,1.3c-2.3,0.7-4.7,1.2-7.1,1.7
			c-6.3,1.2-5.3,10.4,1.2,9.9c3.7-0.3,7.5-1,11.3-2c-1.3,1.6-2.6,3.2-3.9,4.8c-3.3,4.2,2.7,10.9,6.9,7c1.8-1.7,3.5-3.4,5.2-5.1
			c0.5,1.7-1.2,3.5-1.5,8c-0.4,6.3,8.6,7.7,9.8,1.4c1.6-8,2.6-10.2,6-17.7c1.3-2.9,2.8-5.7,4.5-8.4c1.3,1.2,2.7,2.3,4.2,3.4
			c13.2,9.3,32.7,11.3,45.9,0.8c11.8-9.4,15.1-25.8,11.8-40c0.9,0,1.8,0.1,2.8,0.3c6.6,1,11.1,4.2,16.4,7.9
			c4.4,3.1,10.5-2.4,6.9-6.9c0-0.1-0.1-0.1-0.2-0.2c1.4,0.5,2.9,1,4.3,1.5c4.9,1.7,10-5.4,4.9-8.4c-2.7-1.6-5.7-3-8.7-4.1
			c3.9-0.4,7.9-0.7,11.9-0.9c5.6-0.3,5.8-9.5,0.1-9.9c-2.6-0.2-5.2-0.2-7.9-0.2c2.2-1.3,4.4-2.6,6.5-4c4.7-3,0.2-11.2-4.9-8.7
			c-2.8,1.4-5.6,2.9-8.4,4.3c1.6-2.4,3.1-4.9,4.2-7.4c2.4-5-5.1-9.3-8.4-4.9c-2.6,3.5-5.2,6.9-7.9,10.2c1.4-4.6,2.2-9.3,2-14
			c-0.2-5.7-8.4-5.1-9.5-0.1c-0.5,2.5-1,5-1.6,7.4c-0.2-3.1-1.3-6-3.9-8.4c-3.8-3.5-8.3,1.5-7.2,5.5c1.6,5.7-0.1,12.3-2.6,18.6
			c-8.1-8.1-20.2-11.9-31.7-10.3C282.1,1729.5,270.2,1741.9,266.5,1757z M318,1741.5c0.6,0.1,1.2,0.2,1.8,0.3
			c0.7,0.2,1.3,0.4,1.9,0.6c0.3,0.1,0.6,0.2,0.8,0.3c1.1,0.5,2.2,1.5,2.6,2.7c0.3,0.8,0.4,1.6,0.3,2.5c-0.1,1-0.7,2-1.4,2.7
			c-0.4,0.5-1,0.9-1.6,1.1c-0.4,0.1-0.8,0.2-1.2,0.3c-2,0.1-3.9-0.3-5.8-0.9c-1.3-0.4-2.2-1.6-2.7-2.8c-0.4-1-0.4-2.1-0.1-3.1
			C313.2,1742.7,315.5,1741.2,318,1741.5z M298.7,1740.7c5.4-1.3,7.3,7.4,2.3,9.3c-7.8,3-14.1,8.8-16.1,17.1
			c-1.5,6.2-11.3,4.9-9.9-1.4C277.8,1753.3,286.4,1743.7,298.7,1740.7z"/></g><g><path d="M897.9,1219.2c-14.1-12.3-28.6-23.7-42-36.7c-13.3-13-25.9-26.8-38-41c-25.1-29.8-47.5-61.8-68.8-94.4
			c-12.4-18.9-23.9-38.4-36.7-57c-4-5.9-13.3-0.7-9.7,5.7c10,17.7,21.3,34.8,32.4,51.9c11.1,17.1,22.4,34,34.2,50.6
			c22.3,31.3,46.4,61.4,73.5,88.6c14.8,14.8,30.5,30.1,47.9,41.8C896.3,1232.4,903,1223.7,897.9,1219.2z"/><path d="M905.4,949.9c-3.9,9.4-7.9,21.7-18.5,25.3c-5.9,2-12.4-0.1-18.1-1.6c-6.2-1.7-12.3-3.6-18.3-5.8
			c-9.4-3.4-21.5-7.4-25.1-17.8c-4.1-11.5,1.7-22.9,7-33c3.4-6.5-5.7-11.7-9.8-5.7c-8.1,12-13.6,27.5-8.9,41.9
			c2.1,6.5,6,11.3,10.9,15.1c-7.1,17.6-13.5,35.2-22.2,52.2c-8.9,17.2-19.3,33.4-30.1,49.4c-3.6,5.4,5,12.2,9.1,7
			c12.5-15.8,22.9-33.1,32-51c8.3-16.3,16.5-33.6,21.6-51.3c3.4,1.6,7,3.1,10.6,4.4c7.4,2.8,15,5.3,22.6,7.3c1.5,0.4,3,0.7,4.5,1
			c-6.6,20.9-13.8,41.1-24.4,60.5c-11.3,20.7-25.2,39.5-40.7,57.2c-4.9,5.6,2.9,13.6,8.2,8.2c17.1-17.5,31.4-37.8,43.1-59.3
			c11.1-20.4,20.9-43,25.9-65.8c2.5-0.2,5-0.8,7.5-1.8c13.9-5.6,20.5-19.9,24.8-33.3C919.4,945.5,908.3,943,905.4,949.9z"/><path d="M881.6,951.1c-10.6-2.1-20.8-4.7-30.6-9.5c-6.7-3.2-12.6,6.6-5.9,10.1c10.8,5.7,22.7,9.7,34.9,10.7
			C886.5,963,888,952.4,881.6,951.1z"/><path d="M814.6,906.7c-31.3-25.7-69.5-44.6-107.5-58c-19.2-6.7-39-12-59-15.6c-21-3.8-42.8-6.7-64-2.8
			c-19.6,3.6-40,14.5-49.2,32.9c-3.2,6.4,5.8,11.8,9.7,5.7c21.5-34,65.8-30.3,100.3-24.1c37.6,6.8,74.1,19.2,108,36.8
			c19.2,10,36.8,22,54.5,34.4C812.9,919.8,819.8,911,814.6,906.7z"/><path d="M549.4,1005.5c-12.2-16.8-22-33.6-25.1-54.4c-3.2-21.6,1.5-42.6,10.7-62.2c3.1-6.7-6.2-12.4-10-5.9
			c-11.9,20.4-16,45.6-12.9,68.9c2.9,21.7,12.2,45.2,28.3,60.5C545,1016.6,553.4,1010.9,549.4,1005.5z"/><path d="M576,1011.1c-10.2-13.8-17.5-29-20.5-46c-3-17.1-0.7-33.5,4.2-50.1c1.8-6.1-8-10.6-10.6-4.5
			c-14.7,34.6-6.7,79.4,17.9,107.6C571.2,1022.9,580,1016.4,576,1011.1z"/><path d="M1378.1,830.4c-17.6,14-35,28.3-52.3,42.8c-5.8,4.9,2.5,12.8,8.2,8.2c17.6-14,35-28.3,52.2-42.8
			C1392,833.7,1383.8,825.9,1378.1,830.4z"/><path d="M1061.4,184c-5.4,19.5-16.9,37.4-33.2,49.7c-7.6,5.7-17.8,12.5-27.8,11.4c-13.7-1.6-13.5-16.3-10.6-26.6
			c2.1-7.4-9.3-10.5-11.5-3.2c-3.9,13.4-3.5,30,9.7,38.1c12.3,7.6,27.3,2.6,38.6-4.2c22.7-13.7,39.6-36.4,45.7-62.2
			C1074.1,179.9,1063.4,176.9,1061.4,184z"/><path d="M1083.3,215.3c-5.6,15.4-11.5,31-21.8,44c-4.2,5.3-9.7,10.2-16.8,10.4c-6.6,0.2-12.4-2.9-16.3-8
			c-4.1-5.3-13.3,1.8-9.3,7.2c11.4,15.4,32.3,17,46.3,4.2c7.2-6.6,12.5-15.6,17-24.2c5.1-9.5,9.7-19.9,12.2-30.4
			C1096.4,211,1085.8,208.2,1083.3,215.3z"/><path d="M1225.9,519.6c-8.1-2.8-16,4.5-14.6,12.7c0.7,4.1,3.9,7,7.5,8.1c0.1,0,0.2,0.1,0.4,0.1c3.7,1.2,7.9,0.3,10.7-2.4
			C1236,532.4,1233.8,522.3,1225.9,519.6z"/><path d="M1250.2,475.5c-5.5-4.9-13.7-9.2-21.3-8.4c-2.8,0.3-4.8,2.4-5.4,4.7c-0.9,0.9-1.4,2.1-1.2,3.8c0.9,7.3,6.2,13.5,12.5,17.1
			c5.4,3.1,13.6,5.6,19,1.3C1260.8,488.4,1255.3,480,1250.2,475.5z"/><path d="M1089.1,488.3c5.5-4.9,13.7-9.2,21.3-8.4c2.8,0.3,4.8,2.4,5.4,4.7c0.9,0.9,1.4,2.1,1.2,3.8c-0.9,7.3-6.2,13.5-12.5,17.1
			c-5.4,3.1-13.6,5.6-19,1.3C1078.5,501.1,1084,492.8,1089.1,488.3z"/><path d="M1124.6,532.3c-6.3-5.4-16.8-3-18.8,5.6c-0.2,0.9-0.3,1.9-0.2,2.8c0,0.1,0,0.2,0,0.4c-0.4,8.6,9.3,14.3,16.7,10.4
			C1129.4,547.7,1130.8,537.6,1124.6,532.3z"/><path d="M1187.5,599c-5.5,3.4-12,4.4-18,1.4c-7.2-3.6-8.9-12.1-9.6-19.5c-1-9.7-1.5-19.4-2.3-29.1c-0.8-10-0.7-20.6-2.8-30.4
			c-1.4-6.5-10.8-4.6-11.1,1.5c-0.3,6.3,0.6,12.9,1.1,19.3c0.5,6.4,1,12.8,1.5,19.3c0.8,11,0.4,23.3,4.3,33.8
			c6.4,17.6,29,25.8,43.9,12.8C1199.3,603.7,1193,595.6,1187.5,599z"/><path d="M1197.9,661.4c-6.7-10-18.1-17-29.6-20.1c-7.3-1.9-10.3,9.1-3.1,11.3c3.6,1.1,7.1,2.6,10.3,4.4c-0.5,0.7-0.9,1.5-1.2,2.3
			c-3.8,10.2,0.3,24.9,12.9,25.6C1200.5,685.6,1204.2,670.8,1197.9,661.4z"/><path d="M673.5,1012.3c6.9-3.8,13-10.4,18.1-16.2c5.1-5.7,9.7-11.8,13.7-18.2c7.5-12,18-30.1,9.7-44c-7.5-12.5-24.1-14.5-36.1-8
			c-8.9,4.8-15,13.1-19.3,22.2c-0.3-2.2-0.6-4.3-0.9-6.5c-0.5-3.3-3.7-4.6-6.6-4.1c-11.5-1.3-23.6-0.4-35.1,0.8
			c-3.1,0.3-5,2.2-5.5,4.4c-0.5,0.8-0.8,1.8-0.9,2.9c-1,17.2-2,34.5-3.1,51.7c-7.1-6.9-12.6-15.2-15.2-25
			c-1.8-6.7-2.2-13.8-1.2-20.7c1.1-7.8,4.3-14.3,7.6-21.3c2.6-5.4-4.7-12.4-9-6.9c-21.2,26.7-11.8,71.4,16.9,88.9
			c-4.3,66.7-14.7,200.4-16.4,225.3c-0.2,2.5,106.7,3.5,106.3,0.1c-4.7-44.9-22.7-175.1-28.3-220.3c-0.2-1.8-0.4-3.5-0.7-5.3
			C669.2,1013.2,671.4,1013.5,673.5,1012.3z M668.6,1129.2c0.6,6.2-10.6,5.9-11.4,0c-3.9-26.5-6.7-53-9.8-79.6
			c-3.1-26.5-6.4-53-9.1-79.6c-0.7-6.3,10.9-6.1,11.7,0c3.5,26.5,6.5,53.1,9.7,79.6C662.7,1076.1,666.3,1102.6,668.6,1129.2z
			 M666.7,1003.5C666.7,1003.5,666.7,1003.5,666.7,1003.5c-1.4-10.7-2.7-21.6-4.1-32.4c1-0.7,1.9-1.6,2.5-3
			c4.5-11.1,7.9-24,18.8-30.7c7.5-4.6,21.2-3.7,22,7.4c0.4,5.9-2.8,12-5.4,17.1c-2.7,5.4-5.7,10.5-9.2,15.4
			c-3.4,5-7.3,9.6-11.5,13.9C675.7,995.5,670.8,999.1,666.7,1003.5z"/><path d="M1627.9,1632c-7.5-60.8-16-121.4-22.3-182.4c-6.3-60.9-11.3-122-15-183.2c-2.1-34.2-3.6-68.4-5.2-102.6
			c0-0.8-0.2-1.6-0.5-2.2c23.1-38.9,38.8-82,42-127.4c2-27.5-1-55.8-10.2-81.9c-9.4-26.6-24.8-50.4-43.3-71.6
			c-37.9-43.4-86.9-74.8-127.7-115.1c-39.1-38.6-73.3-91.8-64.9-149.3c0.8-5.3,2-10.6,3.5-15.7c7.3-0.5,14.3-3.3,20.7-7.4
			c0.5-0.3,1.1-0.5,1.6-0.8c0.8-0.4,1.4-1,1.8-1.6c8.4-6.3,15.6-14.8,20.4-23.4c7.2-12.9,12.2-27,17.2-40.8
			c5.5-15,10.3-30.2,14.2-45.6c7.8-30.8,12-62.8,10.1-94.6c-1.7-29.3-7.8-60.8-23.6-86c-13.1-20.9-36.6-38.1-61.6-37
			c-0.8-28.1-14.9-55.5-36.8-74c-28.6-24.3-65.7-33.6-102.5-32.3c-4-0.7-8.1-1.1-12.2-1.3c-0.3,0-0.6-0.1-0.9,0c0,0,0,0-0.1,0
			c-10.5-0.4-21.1,0.6-31.3,2.9c-5.6,1.3-11,2.9-16.4,5c-14.5,4.3-43.8,19.6-44.2,20.4c-16.7-19.4-39.1-34.3-62.9-42.5
			c-54.8-19-116.4-3.5-165,24.9c-51.7,30.3-93.3,75.1-133.2,119.2c-41.1,45.4-80,93.4-110.1,146.9c-29.7,52.8-51,111.4-55.6,172.1
			c-0.5,7.1-0.8,14.3-0.8,21.5c-0.1,0.6-0.2,1.2-0.2,1.9c1.4,32.7,11,65.5,23.8,95.3c12.9,30,30.8,57.8,52.4,82.2
			c12.3,13.9,25.9,26.5,40.8,37.6c5.3,3.9,12.2-5,7.1-9.2c-49-39.9-85.6-92.6-102.6-153.8c-4.8-17.1-7.5-34.3-9.7-51.9
			c0-0.2,0-0.3,0-0.5c1.4-59,17.8-116.1,44.3-168.6c26.4-52.2,61.7-99.3,100-143.3c19.2-22.1,38.9-43.6,59.4-64.5
			c20-20.5,41-40.2,64.3-57.1c44.5-32.3,100.1-55.3,156-47.2c51.9,7.6,100.4,45.6,110.9,97.6c4.3,21.8,2.6,30.6,0.2,33
			c-3.6,3.7-11.6,4.7-15.3,2.1c-4.9-3.6-8.7-11.5-11.4-16.8c-5.8-11.6-9.6-26.1-16.3-37.3c-0.2-0.3-0.4-0.6-0.6-0.9
			c-0.5-0.8-1-1.7-1.5-2.5c-1-1.7-2.7-2.5-4.4-2.6c-2.8-1.2-6.4-0.3-7.5,3.6c-4.4,15.8-11.7,30.5-22.6,42.8
			c-9.5,10.6-18.5,20.7-30.7,27c-36.3,19.8-71.7,3.1-106.8-4.9c0,0-9.7-2.2-9.7,3.6c-1.7,23.8-3.8,47.4-7.6,71
			c-4,24.8-9.4,49.3-16,73.5c-13.2,47.9-31.5,94.3-54.7,138.2c-13.2,25-28.2,48.9-43.8,72.5c-4.1,6.3,5.6,11.6,9.9,5.8
			c6.7-9.2,13.2-18.6,19.3-28.2c22.6,17.4,46.3,33.4,69.4,50.1c11.9,8.5,23.7,17.1,35.6,25.6c11.8,8.5,23.4,17.7,35.7,25.4
			c0.2,0.2,0.5,0.3,0.7,0.4c-1.4,5.7-3.4,11.2-5.4,16.4c-13.4,33.5-31.1,65.7-50.9,95.9c-11.5,17.4-24,34-36.8,50.4
			c-4.4,5.6,3.1,13.7,8.1,8.1c27.3-31.2,50.2-66.9,69.3-103.7c9.6-18.5,19.4-37.8,25.7-57.8c3.3-10.4,5-22,3.3-32.9
			c7,5.1,14.1,9.9,21.1,14.8c15.2,10.6,30.6,20.7,46.4,30.3c15.5,9.5,31.3,18.5,47.3,27c16.2,8.6,32.6,17.3,49.6,24.1
			c6.1,2.5,10.3-7.6,4.5-10.7c-16.1-8.4-32.6-15.9-48.7-24.4c-15.8-8.4-31.3-17.3-46.6-26.5c-15.3-9.3-30.3-19-45-29.1
			c-13.6-9.3-26.4-19.6-39.9-29.1c-12.1-12.5-33.1-15.8-46.2-2.5c-0.7,0.7-1.2,1.5-1.4,2.3c-6.5-4.6-13-9.3-19.5-13.9
			c-23.4-16.6-46.4-34-70.2-49.9c18.4-30.2,34.1-62.3,47.5-94.9c19.3-46.9,33.4-96,42-146c4.2-24.4,7.4-49.2,8.7-74.1
			c9.7,3.6,20,5.9,29.9,7.8c13.5,2.6,27.3,4,41,4.1c8.7,0.1,19.7-1,27.9-5.6c-12.9,38.1-17.4,84-9.4,123.5c-0.1,1.2,0.2,2.5,1.2,3.6
			c0.4,0.6,0.9,1.1,1.5,1.4c8.8,7.4,19.3,11.2,30.3,13.3c6.1,55.3,15.5,110.3,27.6,164.5c6.1,27.6,11.2,57.9,26.8,81.9
			c13.1,20.1,34,34.9,57.4,40.5c11.2,2.6,23,3.1,34.6,1.5c-2.2,20.5-10.4,40.1-24.7,55.2c-15.1,16-35.9,26.2-57.8,28.5
			c-7.5,0.8-7.6,12.5,0,11.8c9.5-0.9,18.7-3.1,27.4-6.5c-4.2,14-2.2,30,5.7,42.4c12.5,19.5,36.7,26.1,58.7,24.8
			c22.5-1.3,45.1-7.8,65.8-16.4c20-8.2,38.9-18.7,56.1-31.7c19.4-14.5,36.8-31.4,50.8-51.2c3.7-5.2-4.9-12-9-6.9
			c-24.2,30.2-53.4,55.1-88.3,72.2c-17.2,8.4-35.5,14.7-54.2,18.7c-20.2,4.3-44.5,6.6-61.8-7.2c-15-12-18-34.5-8.2-50.6
			c0.4-0.7,0.7-1.3,0.8-2c29.1-17.3,49.3-48.1,50.6-83.4c13-3.5,25.1-9.8,35-18.7c4.8-4.4-1.7-13.1-7.1-9.2
			c-19.6,14.2-43.1,22.3-67.4,17.7c-22.3-4.2-42.6-17.7-54.7-37c-14-22.4-18.6-50.2-24.3-75.6c-6.2-27.8-11.7-55.7-16.5-83.8
			c-4.3-25.8-8-51.7-11.1-77.7c4.6,0.4,9.2,0.7,13.7,0.8c20.3,0.8,40.7-0.8,60.7-4.3c39.7-6.9,78.1-22.1,111.8-44.2
			c12.8-8.4,25.1-17.7,36.4-28.1c-0.6,9.1-0.1,18.3,0.5,27.1c1,13.5,3.1,26.9,6.4,40c6.5,26,17.6,51.6,33.2,73.5
			c2.5,3.5,6.9,3.3,9.5,1.2c1.7-0.8,3-2.5,2.9-5.1c-0.5-14.4,7.1-30.8,23-32.9c6.5-0.8,13.6,1.5,17.9,6.5c5,5.9,6.3,14.5,7.1,21.9
			c1.8,17.4-0.5,35.3-4,52.4c-2.8,13.9-9.2,28.6-25.8,26.4c-0.6-0.1-1.3,0-1.9,0.2c-1-0.1-2.1-0.2-3.2-0.3c-1.2-0.1-2.3,0.3-3.2,1
			c-3.3,2.1-4.3,8-0.1,10.4c2.6,1.4,5.1,2.5,7.7,3.2c-14.9,51.9,7.1,106.9,39.7,147.6c36.1,45.1,85.1,77.3,126.7,116.8
			c20,19,38.4,39.7,52.1,63.7c13.7,24.1,21.4,51,23,78.7c3.2,56.4-16.3,111.7-46.5,158.6c-31.7,49.3-74.3,89.7-116.5,129.9
			c-2.5,2.3-4.9,4.7-7.4,7.1c5.6-23-5.3-49.6-12.9-70.8c-19.9-55-49.9-108.5-99.6-141.6c-22.8-15.2-49-25.4-76.3-27.7
			c18.9-20.6,38.5-40.5,58.7-59.8c12.8-12.2,25.7-24.2,38.9-36c5.6-5-2.6-13.1-8.2-8.2c-47.2,40.9-90.9,85.7-131.2,133.4
			c-11.5,13.6-23,27.3-33.6,41.7c-0.5,0.7-0.8,1.5-0.9,2.2c-26.6-19.6-54.1-38-81.7-56c-23.7-15.4-47.8-30.3-72.1-44.6
			c4.5-11.2,8.3-22.8,12.2-34.2c2.5-7.2-8.8-10.2-11.4-3.1c-3.8,10.3-7.9,20.7-11.2,31.2c-9.8-5.7-19.7-11.3-29.6-16.8
			c-21.6-12.1-43.4-23.9-65.7-34.8c-6.7-3.3-12.7,6.6-5.9,10.1c38.3,20.3,76.5,40.8,113.7,63c37.2,22.2,73.7,45.6,109.4,70.3
			c20.4,14.1,40.3,28.7,60.5,43c5.3,3.7,12.1-5,7-9c-5.6-4.4-11.3-8.8-17-13.1c0.6-0.3,1.2-0.7,1.8-1.4c18.6-22.3,36.7-44.8,56-66.5
			c50.8,1.4,96,31,126.6,70.2c16.6,21.2,29.4,45.3,39.8,70c3,7.2,5.8,14.4,8.4,21.7c-14.2,28-33.2,53.4-55.9,74.8
			c-1,0.9-1.8,1.9-3.6,3.3c-14,12.8-29.4,24.1-46,33.6c-49.2,28.3-106.7,39.3-162.9,32.2c-33-4.2-63.9-15-93.4-30.1
			c-6.6-3.4-12.2,6.1-5.8,9.9c52.1,30.8,117,40.2,176.3,31.1c51.4-7.9,99.7-31.5,138.4-66c10.5,6.6,22.4,11.6,34.9,11.3
			c16.6-0.4,37.2-12.2,42.5-17c43.9-39,87.5-79.7,122.1-127.4c2.9-4,5.7-8,8.4-12c3.6,117.3,13.9,234.8,27.9,351.3
			c4.2,34.5,8.3,69.2,14,103.5C1617,1640.4,1628.7,1638.9,1627.9,1632z M1177.7,410.1c-19.1,8.4-39.1,13.5-60,14.9
			c-20,1.4-42.6,0.1-61.6-7c-6.9-2.6-4.3-12.6,3.1-11.1c9.6,2,18.9,4.4,28.6,5.4c9.3,1,18.7,1.1,28.1,0.6c19-1.1,38.2-5.6,55.7-13.1
			C1178.6,396.8,1184.7,407,1177.7,410.1z M1230.7,386.3c-4.9,3.3-9.9,6.4-15,9.4c-6.5,3.7-11.9-5.8-5.8-9.9c4.9-3.3,9.9-6.4,15-9.3
			C1231.3,372.7,1236.8,382.3,1230.7,386.3z M1269.4,178.3c-3.7,0.9-7.7,1.3-11.5,1.5c-6.5,0.3-7.9-10-1.5-11.3
			c3.8-0.8,7.7-1.3,11.5-1.4C1274.3,167.1,1275.6,176.8,1269.4,178.3z M1339.9,225.4c-4.9-8.2-10.2-15.7-17.4-22.1
			c-7.1-6.3-15.4-10.8-24.1-14.6c-6-2.6-1.7-12.5,4.4-10.5c19.7,6.5,38.3,22.4,47,41.3C1353,226.2,1343.8,232,1339.9,225.4z
			 M1452.7,430.8c-0.6,7.3-11.4,7.5-11.5,0c-0.1-5,0.1-9.9,0.6-14.9c0.7-7.1,11-7.4,11.3,0C1453.2,420.9,1453.1,425.9,1452.7,430.8z
			 M1390.6,297.3c-5.8-3-1.7-13,4.5-10.6c38,14.9,51.4,60,58.5,96.2c1.4,7.1-9.1,10.2-11,3c-4.9-18.4-8.7-37.3-17.7-54.2
			C1416.9,316.7,1405.7,305.1,1390.6,297.3z"/><path d="M1037.7,1622.1c-9.7,3.9-20.9,3.5-29.5-2.8c-8.9-6.5-10.7-15.9-11.7-26c0,0,0,0,0,0c27-91,36-188,28.4-282.5
			c-2.2-26.7-5.6-53.4-10.6-79.7c-0.6-3.4-3.7-4.2-6.3-3.2c-24.9,2.9-49.6,6.7-74.5,9.5c-24.7,2.9-49.5,5.4-74.3,7.5
			c-50.3,4.3-100.6,7.1-151.1,8.4c-99.7,2.5-199.9-0.6-299.2-10.6c-50.7-5.1-101.6-14-146.9-38.4c-4.9-2.6-9.2,3.4-6.5,7.1
			c-5.3,25.2-7.2,51.7-8.4,77.3c-1.3,27.2-1.1,54.4,0.7,81.6c3.6,53.5,13.1,106.7,28.7,158.1c8.6,28.4,18.9,56.3,31.4,83.2
			c0,0.1,0,0.3,0.1,0.4c3.2,17.5-3.5,34.7-17.1,46c-4.2,3.5,1.4,10.8,5.9,7.6c17.4-12.6,26.1-35.3,20.9-56.3c-0.3-1-0.7-1.8-1.3-2.4
			c-34.9-81.5-55.5-168.1-59.1-256.4c48.6,7.1,97.3,12.5,146.3,16.5c0.5,8.9,1.2,17.8,2,26.6c1.8,20.1,4.1,40.1,7.1,60.1
			c-29.1-3.8-58.1-8.1-87.1-12.8c-6.1-1-8.9,8.3-2.6,9.4c30.3,5.7,60.8,10.4,91.4,14.2c3.7,23.1,8.2,46.1,13.5,68.8
			c3.8,16.3,8.1,32.6,12.8,48.7c-22.4-3.2-44.8-6.9-67.2-10.9c-6.1-1.1-8.7,8.1-2.6,9.3c24.2,5,48.6,9.2,73.1,12.6
			c1.9,6.2,3.9,12.5,6,18.7c0,0,0,0,0,0c0,0.1,0,0.1,0,0.2c3.2,16.3-1.1,31.3-14.1,42c-4.2,3.5,1.3,10.7,5.9,7.6
			c15.3-10.5,24.5-32.8,17.9-50.8c0-0.5-0.1-1.1-0.2-1.6c-1.5-4.9-3-9.7-4.4-14.6c45.7,6,91.8,9.4,137.7,10.9
			c3.3,0.1,6.5,0.2,9.8,0.3c2.3,12.1,4.7,24.2,7.3,36.3c1,18.6-6.5,37-21.7,48.3c-4.9,3.7-0.3,12,4.9,8.4
			c18.3-12.5,29.6-34.9,26.8-57.2c-0.1-0.7-0.3-1.2-0.5-1.8c-2.2-11.3-4.3-22.5-6.3-33.8c42.1,0.7,84.2-0.6,126.2-3.7
			c-0.4,10.9-0.9,21.8-1.2,32.7c0,0.2,0,0.3,0,0.5c-2.3,18.3,7.3,37.8,22.6,47.9c4.5,3,10.2-4.1,5.9-7.6
			c-12.8-10.4-18.5-23.6-18.7-39.7c0.1-0.3,0.1-0.7,0.2-1c0.8-11.2,1.4-22.4,1.9-33.6c22.1-1.8,44.2-4.2,66.3-7.1
			c15.6-2.1,31.1-4.3,46.6-6.9c-1.8,8.9-3.8,17.9-5.7,26.8c-2.7,6.4-2.2,14.6-0.5,20.9c2.1,8,6.8,14.8,13.6,19.5
			c4.5,3.2,10-4,5.9-7.6c-4.5-3.9-8-8.8-9.5-14.7c-1.7-6.3-0.3-11.2,0.8-17.4c0.1-0.5,0.1-0.9,0.1-1.3c2.3-9.3,4.4-18.7,6.5-28.1
			c22.2-3.8,44.2-8.3,66.1-13.5c6.4-1.5,3.7-11.1-2.7-9.8c-20.3,4.3-40.6,8.2-61,11.8c7.3-35.9,12.7-72.2,16.4-108.7
			c40.7-5,81.1-11.3,121.4-19c-2.1,23.2-5.2,46.4-9.4,69.4c-4.7,25.9-10.7,51.6-17.7,77.1c-0.2,0.9-0.2,1.6-0.1,2.3
			c-1.8,12.2,5.7,25.7,15.1,32.8c11.5,8.7,27.2,9.6,40,3.2C1046.3,1628.6,1042.9,1620,1037.7,1622.1z M401.7,1321.6
			c0.2,11.6,0.5,23.3,1.1,34.9c-48.8-3.9-97.5-9.3-146-16.2c-0.4-13.9-0.3-27.9,0.2-41.8c0.5-14.9,1.6-29.8,3-44.7
			c1.2-12.4,3.1-24.7,4.6-37c37.9,19.6,80.3,28.3,122.4,33.6c5.4,0.7,10.9,1.3,16.4,1.9C401.3,1275.3,401.3,1298.6,401.7,1321.6z
			 M730.8,1262.9c2.5,31.9,4.6,63.8,6.2,95.7c-19.5,1.3-39,2.4-58.5,3.2c-32.6,1.3-65.2,1.9-97.8,1.9c-0.5-6.1-0.9-12.2-1.3-18.3
			c-1.8-27.3-2.4-54.8-4.2-82.1C627.1,1264.7,679,1264.6,730.8,1262.9z M737.6,1369.2c1.6,32.7,2.7,65.3,3.1,98
			c-49.7,2.1-99.6,2.4-149.3,0.7c-3.9-31.2-7.2-62.4-9.8-93.8C633.7,1374.3,685.7,1372.6,737.6,1369.2z M412.2,1329.2
			c-0.6-25.3,0.4-50.5,1-75.9c40.6,4.2,81.4,6.6,122.1,8.4c10.1,0.5,20.1,0.8,30.2,1.2c-0.2,24.8,1.6,49.8,3.1,74.6
			c0.5,8.7,1.2,17.4,1.8,26.1c-52.4-0.3-104.8-2.4-157.1-6.3C412.8,1347.9,412.4,1338.6,412.2,1329.2z M413.9,1367.7
			c37.1,2.8,74.2,4.7,111.4,5.7c15.3,0.4,30.6,0.6,45.9,0.7c1,12.5,2.1,24.9,3.3,37.3c1.8,18.7,3.9,37.4,6.2,56.1
			c-34.5-1.3-68.9-3.6-103.3-6.8c-18-1.7-36-3.6-54-5.9C418.9,1426.1,415.7,1397,413.9,1367.7z M496.9,1588.9
			c-15.2-1.5-30.3-3.3-45.4-5.3c-11-38.7-19.9-78-26.4-117.7c52.1,6.3,104.6,10.2,156.9,12.2c3.5,27.4,7.5,54.7,12,81.9
			c1.9,11.8,4,23.5,6.2,35.2C565.6,1594.3,531.2,1592.3,496.9,1588.9z M740.5,1551.9c-0.3,13.2-0.7,26.4-1.2,39.6
			c-7.2,0.6-14.4,1.1-21.6,1.5c-35.6,2.1-71.2,2.9-106.9,2.3c-6.9-38.9-13-77.8-18.1-117c0.1,0,0.3,0,0.4,0
			c49.2,1.6,98.5,1.4,147.7-0.7C741.1,1502.4,741,1527.2,740.5,1551.9z M746.9,1344.4c-1.6-27.3-3.6-54.6-6.3-81.9
			c33.4-1.3,66.7-3.2,100-5.8c14.6-1.1,29.3-2.4,43.9-3.8c1.6,30.2,2.9,60.4,3.1,90.6c-46.5,5.9-93.1,10.9-139.8,14.3
			C747.4,1353.3,747.2,1348.8,746.9,1344.4z M872,1535.8c-2.2,13.4-4.7,26.8-7.3,40.1c-38,6.4-76.3,11.4-114.8,14.7
			c1.3-34,1.6-68.1,1.5-102c0-3.8,0-7.6-0.1-11.4c38.4-1.9,76.8-4.8,115.1-9c5-0.5,9.9-1.1,14.9-1.7
			C878.9,1489.7,875.8,1512.8,872,1535.8z M886.7,1392.3c-0.9,21.2-2.3,42.5-4.4,63.6c-43.6,5.1-87.3,8.7-131.2,10.8
			c-0.4-32.8-1.4-65.5-3-98.3c17.4-1.2,34.8-2.6,52.1-4.3c29.1-2.7,58.2-5.8,87.2-9.7C887.5,1367.1,887.2,1379.7,886.7,1392.3z
			 M893.2,1454.6c3.1-33.8,4.7-67.7,4.9-101.5c18.3-2.5,36.5-5.4,54.7-8.6c6.4-1.1,3.6-10.5-2.6-9.6c-17.3,2.5-34.7,4.9-52,7.2
			c0-3.8,0-7.7-0.1-11.5c-0.3-26.2-1-52.6-3.6-78.7c10.4-1,20.9-2.1,31.3-3.3c26.6-3,53.3-6,79.7-10.4c10.9,65.5,14.1,132,9,198.1
			C974.2,1443.6,933.7,1449.7,893.2,1454.6z"/></g><path fill="#ffef00" d="M1130.4,577.9c-3.5-12.5-18.4-14.9-29.6-14.7c-10.3,0.2-25.7,3.3-31.1,13.2c-2.8,5.1-1.9,11.3,2.2,15.4
		c1.7,1.8,3.8,3,6.1,4c7.1,7.3,21.5,6.5,30.4,4.9C1119.5,598.8,1134.4,592,1130.4,577.9z"/></svg>